<?xml version="1.0" encoding="UTF-8"?>
<svg version="1.1" xmlns="http://www.w3.org/2000/svg" width="2637" height="2637">
<path d="M0 0 C9.28806541 0.6574802 18.23922954 2.57467652 27.3125 4.5625 C28.53693314 4.82951721 28.53693314 4.82951721 29.78610229 5.10192871 C120.3524663 24.93814503 205.62964727 64.54063836 277 124 C277.57443848 124.4753418 278.14887695 124.95068359 278.74072266 125.44042969 C289.06877289 133.99376714 299.07913518 142.90632044 308.4609375 152.49609375 C310.07403784 154.07234662 311.76145508 155.50147722 313.5 156.9375 C316.7050116 159.63084677 319.34526712 162.61105611 322.05078125 165.796875 C324.27068212 168.30594131 326.61503502 170.64750807 329 173 C333.21594946 177.17791082 337.16713671 181.47168935 341 186 C341.82113281 186.95519531 342.64226562 187.91039062 343.48828125 188.89453125 C371.01014299 221.00667111 394.81010207 256.18501665 414.66699219 293.51025391 C415.84461072 295.70976926 417.04412557 297.89448056 418.2578125 300.07421875 C458.96886759 373.85425832 481.20429927 461.68736068 484 648 C483.93683594 648.75748535 483.87367188 649.5149707 483.80859375 650.29541016 C476.70396178 735.32462076 457.55102697 818.96393315 374.72802734 1003.03564453 C373.16387496 1005.71887966 371.61729208 1008.41155344 370.07667542 1011.10835266 C360.65302294 1027.58758526 350.59517378 1043.49761381 339.90917969 1059.18603516 C337.86354579 1062.20112164 335.85500496 1065.23846121 333.85620117 1068.28466797 C328.39820172 1076.58739452 322.58673368 1084.62770141 316.72070312 1092.64550781 C314.97978108 1095.02766618 313.24745948 1097.41591692 311.515625 1099.8046875 C304.94961017 1108.82690868 298.18200534 1117.61946136 291.0859375 1126.23046875 C288.13720325 1129.81212446 285.28162829 1133.46013462 282.4375 1137.125 C277.32877665 1143.67946613 271.95498421 1149.98074818 266.50732422 1156.25439453 C265.01564678 1157.98187975 263.53879474 1159.72090215 262.06640625 1161.46484375 C256.18128427 1168.42247881 250.12050145 1175.17033498 243.87084961 1181.80297852 C240.9124517 1184.94340622 237.99605236 1188.09835558 235.1875 1191.375 C232.11198966 1194.95405738 228.79213278 1198.24643834 225.40625 1201.53125 C223.5495607 1203.436165 221.83964985 1205.34816197 220.12109375 1207.37109375 C214.88651206 1213.4010508 209.17369802 1218.97511502 203.52124023 1224.60913086 C201.56704376 1226.5579687 199.61824853 1228.51209272 197.66992188 1230.46679688 C192.09247942 1236.04690996 186.53623959 1241.58734876 180.51928711 1246.69897461 C178.57222495 1248.36632062 176.77984381 1250.15659034 175 1252 C171.87491498 1255.16747959 168.63758111 1258.11885247 165.265625 1261.01953125 C162.46683207 1263.46606231 159.73328294 1265.98095883 157 1268.5 C152.39227881 1272.73785163 147.74556088 1276.91699561 143 1281 C142.50806152 1281.42361816 142.01612305 1281.84723633 141.50927734 1282.28369141 C137.34766887 1285.86535326 133.17625123 1289.4354276 129 1293 C128.42491699 1293.49113281 127.84983398 1293.98226563 127.25732422 1294.48828125 C121.14380591 1299.70383811 114.99875239 1304.86844013 108.69921875 1309.859375 C106.67378163 1311.46565509 104.65643582 1313.08005696 102.64453125 1314.703125 C93.98844051 1321.67841015 85.21230413 1328.47977593 76.35986328 1335.20361328 C73.81740967 1337.13899231 71.28136802 1339.08257076 68.74609375 1341.02734375 C59.52656684 1348.09193708 50.28114797 1355.08780842 40.77050781 1361.75634766 C38.81918009 1363.12701277 36.87414534 1364.5063264 34.9296875 1365.88671875 C3.68041159 1388.05186125 -28.34980267 1408.96043685 -61 1429 C-62.07024414 1429.6590332 -63.14048828 1430.31806641 -64.24316406 1430.99707031 C-79.75238908 1440.5435842 -95.4030519 1449.7383393 -111.35400391 1458.53515625 C-114.27990218 1460.15495599 -117.18993189 1461.8009543 -120.09692383 1463.4543457 C-138.44608431 1473.8787328 -157.15171613 1483.68158716 -175.88916016 1493.38574219 C-178.67774714 1494.83277854 -181.46321522 1496.28565092 -184.24752808 1497.7408905 C-198.66538248 1505.27403094 -213.14239721 1512.62577098 -227.87451172 1519.53076172 C-230.66916621 1520.84448073 -233.45863698 1522.1686229 -236.24629211 1523.49711609 C-283.30856454 1545.9125059 -331.39567784 1566.18096294 -380 1585 C-380.65703918 1585.25460999 -381.31407837 1585.50921997 -381.99102783 1585.77154541 C-402.05594116 1593.54036866 -422.26623998 1600.90594176 -442.53521729 1608.12243652 C-444.19160754 1608.71217921 -445.84781414 1609.30243795 -447.50384521 1609.89318848 C-536.70521731 1641.70528966 -627.99753241 1667.31615452 -1208.95452881 1754.92181396 C-1212.04944182 1755.04011384 -1215.14378115 1755.17218423 -1218.23828125 1755.30078125 C-1225.2883236 1755.57599628 -1232.33943959 1755.77195228 -1239.39276123 1755.93817139 C-1241.25073763 1755.98223183 -1243.10868589 1756.02748619 -1244.96661377 1756.07354736 C-1335.24207543 1758.30352482 -1425.42627927 1755.89215521 -1572.375 1741.6875 C-1573.04766907 1741.60636963 -1573.72033813 1741.52523926 -1574.41339111 1741.44165039 C-1584.60704679 1740.1964766 -1584.60704679 1740.1964766 -1587 1739 C-1587 1738.34 -1587 1737.68 -1587 1737 C-1585.99921417 1736.85125427 -1584.99842834 1736.70250854 -1583.96731567 1736.54925537 C-1497.02530941 1723.62161411 -1410.17780079 1710.24704754 -1268.87145996 1682.78521729 C-1265.16107048 1682.03266864 -1261.45020017 1681.28253158 -1257.73925781 1680.53271484 C-1173.89962684 1663.56141232 -1090.48698336 1643.98602826 -862.44171143 1577.78460693 C-859.9813165 1576.99399634 -857.5198825 1576.20670583 -855.05810547 1575.42041016 C-760.82592407 1545.31007118 -668.41034561 1509.6284927 -531.21240234 1448.49511719 C-527.87033724 1446.93965232 -524.52340521 1445.3950241 -521.17578125 1443.8515625 C-480.15657809 1424.89115155 -439.48460518 1404.99846391 -400 1383 C-398.98760254 1382.43829102 -397.97520508 1381.87658203 -396.93212891 1381.29785156 C-384.64868432 1374.48012138 -372.40525393 1367.6054571 -360.34423828 1360.40039062 C-358.64318904 1359.3842254 -356.94087382 1358.37017846 -355.23779297 1357.35742188 C-319.03480448 1335.82589094 -283.54135088 1313.11445874 -249 1289 C-248.0092749 1288.30994873 -248.0092749 1288.30994873 -246.99853516 1287.60595703 C-235.52046366 1279.59969797 -224.23016602 1271.34962449 -213 1263 C-212.42942871 1262.5762207 -211.85885742 1262.15244141 -211.27099609 1261.71582031 C-192.45030615 1247.72110126 -173.96628568 1233.30963815 -155.80419922 1218.47216797 C-154.21726954 1217.17728489 -152.62651263 1215.88709522 -151.03515625 1214.59765625 C-144.18851863 1209.037905 -137.49181469 1203.3143188 -130.81152344 1197.55712891 C-129.00637604 1196.00548064 -127.19561441 1194.46066415 -125.3828125 1192.91796875 C-118.96824415 1187.45445077 -112.64778212 1181.91842372 -106.4375 1176.22265625 C-104.35727275 1174.32578236 -102.25443102 1172.46607057 -100.125 1170.625 C-95.57748435 1166.66663618 -91.15411773 1162.57547988 -86.73852539 1158.47143555 C-84.37261469 1156.27277935 -82.00187044 1154.07956506 -79.62719727 1151.89038086 C-68.46723344 1141.55698053 -57.69177855 1130.84686275 -46.95141602 1120.08178711 C-44.42032276 1117.54493529 -41.8846775 1115.01268777 -39.34773922 1112.48168278 C-37.35975682 1110.4973356 -35.37418846 1108.51058657 -33.38931465 1106.52313042 C-32.00876324 1105.14160668 -30.62623216 1103.7620621 -29.24363708 1102.38258362 C-24.81580294 1097.93830524 -20.52922479 1093.43491658 -16.44044495 1088.67625427 C-14.77154362 1086.73414397 -13.04239135 1084.8586368 -11.28125 1083 C-10.65863281 1082.34 -10.03601562 1081.68 -9.39453125 1081 C-8.13151042 1079.66666667 -6.86848958 1078.33333333 -5.60546875 1077 C-1.29107818 1072.42656735 2.89425212 1067.76145103 7 1063 C7.48839355 1062.4337793 7.97678711 1061.86755859 8.47998047 1061.28417969 C9.88525741 1059.65013673 11.28706304 1058.0131923 12.6875 1056.375 C13.72779139 1055.15879156 14.76815823 1053.94264764 15.80859375 1052.7265625 C16.33437012 1052.11200195 16.86014648 1051.49744141 17.40185547 1050.86425781 C18.98430606 1049.0183072 20.57146204 1047.1765159 22.16015625 1045.3359375 C27.91465912 1038.66302827 33.55959214 1031.9336484 39 1025 C39.80566406 1023.9790625 40.61132812 1022.958125 41.44140625 1021.90625 C43.78322382 1018.93644688 46.11683093 1015.96029276 48.44775391 1012.98193359 C49.50878272 1011.62719438 50.57101312 1010.27339562 51.63427734 1008.92041016 C86.34709275 964.73955148 117.86359993 917.83129177 144.67919922 868.42675781 C146.17287642 865.68236754 147.68272997 862.94710946 149.19140625 860.2109375 C186.93095451 791.3810626 215.04783571 716.89209994 245 516 C245.03609375 514.95070313 245.0721875 513.90140625 245.109375 512.8203125 C245.28596677 506.86916973 245.2040894 500.94957045 245 495 C244.97808594 494.32916382 244.95617188 493.65832764 244.93359375 492.96716309 C242.20121701 410.44309383 224.99508671 331.2895994 122 131 C121.47100098 130.28553711 120.94200195 129.57107422 120.39697266 128.83496094 C114.41900912 120.76315578 108.35295181 112.78204117 102 105 C100.97712891 103.73349609 100.97712891 103.73349609 99.93359375 102.44140625 C90.337338 90.61346311 80.38307874 79.14273634 70 68 C69.12722412 67.05954834 69.12722412 67.05954834 68.23681641 66.10009766 C53.70151146 50.42561453 53.70151146 50.42561453 38.09008789 35.8449707 C34.70690346 32.85855268 31.45612253 29.73553493 28.1875 26.625 C22.77977953 21.51376507 17.29552845 16.64892276 11.484375 12 C8.88049973 9.90379852 6.33496086 7.75594422 3.8125 5.5625 C2.70841797 4.60537109 2.70841797 4.60537109 1.58203125 3.62890625 C0 2 0 2 0 0 Z " fill="#12175A" transform="translate(1884,683)"/>
<path d="M0 0 C1.25491538 -0.00573832 1.25491538 -0.00573832 2.5351826 -0.01159257 C5.33094339 -0.021889 8.12649752 -0.0179368 10.92227173 -0.01396179 C12.92985728 -0.01831014 14.93744116 -0.02349369 16.94502258 -0.02944946 C22.39339649 -0.04283787 27.84170102 -0.04341827 33.29008818 -0.04088616 C37.84027687 -0.0398163 42.39045154 -0.04470026 46.94063723 -0.04949158 C57.67655081 -0.06058634 68.41242941 -0.06102442 79.14834595 -0.05497742 C90.2194072 -0.04893746 101.29034137 -0.06124931 112.36138093 -0.08254749 C121.87068599 -0.10016779 131.3799506 -0.10616414 140.88927138 -0.10290974 C146.56691609 -0.10109735 152.24447015 -0.10372872 157.92210007 -0.11762428 C163.26223906 -0.13020482 168.60218008 -0.12825626 173.94231606 -0.11521339 C175.89983118 -0.11284853 177.85736025 -0.11557907 179.81485939 -0.12383652 C182.49195481 -0.1343133 185.16838708 -0.12619585 187.84545898 -0.11352539 C188.61570794 -0.12089968 189.38595689 -0.12827396 190.17954671 -0.13587171 C196.32992424 -0.07484806 201.90343662 1.09849487 206.79190063 5.09272766 C207.33072876 5.74628235 207.86955688 6.39983704 208.42471313 7.07319641 C208.97901001 7.71901672 209.53330688 8.36483704 210.10440063 9.03022766 C213.64968427 14.50146268 213.83927326 19.84377714 213.81076747 26.13946724 C213.81469018 27.02801365 213.8186129 27.91656006 213.82265448 28.83203213 C213.83341104 31.8245966 213.82991218 34.81697553 213.82653522 37.80955505 C213.83135046 39.97991231 213.83703573 42.15026779 213.84351477 44.32062072 C213.85884398 50.31882644 213.86164207 56.3169839 213.86246049 62.31520678 C213.86518217 68.15681762 213.87722494 73.99840452 213.88895596 79.84000313 C213.91289012 91.93721816 213.92716541 104.03442777 213.93616486 116.13166237 C213.94529841 128.39427361 213.95865808 140.65686902 213.97715569 152.91946983 C213.97889969 154.08047019 213.97889969 154.08047019 213.98067893 155.26492509 C213.98542068 158.41722989 213.9901809 161.56953466 213.99496771 164.7218394 C214.05423477 203.83348638 214.09011778 242.94514523 214.1210921 282.05682338 C214.12950626 292.67925376 214.1383736 303.30168369 214.14749121 313.92411348 C214.20395303 379.72726661 214.25355319 445.53042304 214.28264646 511.33359443 C214.28941392 526.58965985 214.29641137 541.84572517 214.30350687 557.10179044 C214.30439579 559.0168673 214.30528081 560.93194417 214.30616195 562.84702103 C214.33446423 624.35634553 214.40114999 685.86553577 214.49373086 747.37479533 C214.56023083 791.56893338 214.62156577 835.76304357 214.64355755 879.95722961 C214.6440122 880.86602908 214.64446684 881.77482854 214.64493527 882.71116738 C214.65480206 902.66128611 214.6615885 922.61140473 214.66548725 942.56152547 C214.66710159 950.58858888 214.66911324 958.61565217 214.67123985 966.64271545 C214.67146147 967.52122929 214.67168309 968.39974313 214.67191142 969.3048786 C214.67923283 997.60735901 214.72052486 1025.9096638 214.77934475 1054.21208021 C214.83839918 1082.71876906 214.86274724 1111.22526445 214.83921457 1139.73201127 C214.83596843 1143.67157879 214.83311019 1147.61114651 214.83048439 1151.55071449 C214.82995505 1152.32297505 214.82942571 1153.0952356 214.82888034 1153.89089799 C214.82151091 1166.11704349 214.85111006 1178.3428086 214.89614203 1190.56886162 C214.93966228 1202.59228606 214.94392705 1214.61519388 214.90651142 1226.63864459 C214.88812847 1233.07017669 214.88725025 1239.50041054 214.9347857 1245.93182206 C214.97769757 1251.78434903 214.96985996 1257.63454144 214.92173552 1263.48700783 C214.91330077 1265.5896126 214.92326247 1267.69239342 214.95400482 1269.79479035 C215.12212136 1282.08781551 214.12284002 1290.164968 205.45749823 1299.30293387 C204.98063662 1299.78253877 204.503775 1300.26214367 204.01246303 1300.75628205 C201.96074384 1302.86644171 200.09908365 1305.11875918 198.22176685 1307.3836364 C196.88609549 1308.99477862 195.52962109 1310.58646406 194.16690063 1312.17475891 C191.74279557 1315.01675206 189.39239914 1317.91359706 187.04971313 1320.82319641 C182.92281108 1325.89677134 178.54868756 1330.69810783 174.10440063 1335.49116516 C172.04857592 1337.71988034 170.03354357 1339.9683756 168.04971313 1342.26069641 C164.31410734 1346.56418527 160.4614735 1350.75787684 156.5975647 1354.945755 C154.76128665 1356.9385096 152.93702602 1358.93979647 151.12173462 1360.95185852 C141.97263712 1371.0253175 132.34411435 1380.61957903 122.71231079 1390.22846985 C120.27291056 1392.66213344 117.83808544 1395.1003175 115.40452957 1397.53982353 C113.04390734 1399.90495613 110.67945275 1402.26624216 108.31533813 1404.62788391 C107.02288177 1405.92337662 107.02288177 1405.92337662 105.70431519 1407.24504089 C101.34421304 1411.58841412 96.91762247 1415.7823751 92.25106812 1419.79515076 C90.22377371 1421.54146034 88.26966054 1423.35431564 86.33096313 1425.19819641 C85.62584595 1425.86593079 84.92072876 1426.53366516 84.19424438 1427.22163391 C83.48654907 1427.89452454 82.77885376 1428.56741516 82.04971313 1429.26069641 C76.65489925 1434.39019158 71.19124585 1439.40327565 65.54971313 1444.26069641 C64.98413696 1444.74844543 64.41856079 1445.23619446 63.83584595 1445.73872375 C62.20124085 1447.14475706 60.5635869 1448.54714181 58.92471313 1449.94819641 C57.70721587 1450.9898054 56.48976945 1452.03147382 55.27236938 1453.07319641 C54.35028687 1453.86210266 54.35028687 1453.86210266 53.40957642 1454.66694641 C51.57744406 1456.23693329 49.74860837 1457.81067072 47.92080688 1459.38569641 C40.87932071 1465.44930534 33.76808514 1471.4077043 26.54971313 1477.26069641 C25.33573247 1478.25625508 24.1222209 1479.25238595 22.90908813 1480.24897766 C13.98379829 1487.56562677 4.91825258 1494.66990981 -4.2906189 1501.62593079 C-6.53552284 1503.32521598 -8.7724457 1505.03465975 -11.00888062 1506.74507141 C-12.46824814 1507.8547988 -13.9278743 1508.96418615 -15.38778687 1510.07319641 C-16.06841187 1510.59534729 -16.74903687 1511.11749817 -17.45028687 1511.6554718 C-22.22214183 1515.26069641 -22.22214183 1515.26069641 -24.45028687 1515.26069641 C-24.47777726 1469.37397825 -24.504137 1423.48725947 -24.52963257 1377.60054016 C-24.53013156 1376.70264185 -24.53063055 1375.80474354 -24.53114465 1374.87963619 C-24.58457179 1278.68553334 -24.63068977 1182.49143027 -24.66200256 1086.2973175 C-24.66269982 1084.16104317 -24.66339707 1082.02476883 -24.66409434 1079.88849449 C-24.67870717 1035.04938762 -24.69229082 990.21028048 -24.70468526 945.37117294 C-24.71091232 922.84763376 -24.71733719 900.32409463 -24.72394907 877.80055556 C-24.72494531 874.40292484 -24.72593591 871.00529411 -24.72692627 867.60766339 C-24.74222957 815.27730206 -24.76178001 762.94694654 -24.79360962 710.61659241 C-24.79429411 709.49109701 -24.79497861 708.36560161 -24.79568384 707.20600029 C-24.80674596 689.05921481 -24.81816391 670.91242955 -24.82962907 652.76564432 C-24.8626393 600.50925117 -24.89302652 548.25286249 -24.90598583 495.99645996 C-24.90638735 494.38517777 -24.90638735 494.38517777 -24.90679697 492.74134441 C-24.91262524 469.16258705 -24.91709977 445.58382962 -24.92029178 422.00507176 C-24.92159992 412.51835002 -24.92310302 403.03162831 -24.92467308 393.54490662 C-24.92492378 391.98746804 -24.92492378 391.98746804 -24.92517955 390.39856605 C-24.93066531 356.92243156 -24.95203262 323.44633022 -24.98169791 289.97020911 C-25.01149864 256.25944703 -25.02578946 222.54871715 -25.0184068 188.83794156 C-25.01739135 184.1833359 -25.01655446 179.52873023 -25.01582527 174.87412453 C-25.01567587 173.9616599 -25.01552647 173.04919526 -25.01537254 172.10908019 C-25.01346656 157.6393535 -25.02841542 143.16969478 -25.05033618 128.69998662 C-25.07152764 114.4843663 -25.07501167 100.26883439 -25.05944593 86.05320575 C-25.05085083 77.71076887 -25.05605672 69.36861176 -25.08137187 61.02620731 C-25.09861537 54.84438736 -25.08997784 48.66286415 -25.07098674 42.481055 C-25.06739741 39.98706794 -25.07230339 37.49305152 -25.08646309 34.99910208 C-25.10441388 31.62514563 -25.09176344 28.25265022 -25.07127935 24.87874031 C-25.08382373 23.90927215 -25.09636812 22.939804 -25.10929264 21.94095802 C-25.00815699 14.18416801 -22.54603753 9.27706886 -17.01278687 3.88569641 C-11.5548913 0.42459191 -6.3297801 -0.03087901 0 0 Z " fill="#F2B943" transform="translate(1649.4502868652344,354.7393035888672)"/>
<path d="M0 0 C1.28297875 -0.00785502 1.28297875 -0.00785502 2.59187627 -0.01586872 C5.4629296 -0.03089134 8.33380506 -0.03157438 11.20489502 -0.03224182 C13.26144716 -0.03986185 15.31799645 -0.04828907 17.37454224 -0.0574646 C22.96557878 -0.07943349 28.55656063 -0.08821187 34.14763546 -0.09329104 C37.64063861 -0.09693217 41.13362738 -0.10317099 44.62662506 -0.11029243 C56.81255219 -0.13479643 68.9984367 -0.14784063 81.18438721 -0.15138245 C92.54290162 -0.15501717 103.90114572 -0.18490576 115.25957751 -0.22678703 C125.01087965 -0.26148176 134.76209218 -0.27693076 144.51345563 -0.27762848 C150.33764328 -0.27842165 156.16155575 -0.28717873 161.98567963 -0.31562614 C167.46541356 -0.34179208 172.94464391 -0.34401991 178.42441177 -0.3279705 C180.43353752 -0.32615479 182.44269212 -0.33285775 184.45175552 -0.34878922 C187.19938883 -0.36924563 189.94525952 -0.35870073 192.69287109 -0.34057617 C193.48393903 -0.35377614 194.27500696 -0.36697611 195.09004664 -0.38057607 C202.15381638 -0.27448659 206.9754765 2.64922833 211.91290283 7.58665466 C215.60160226 13.46125004 216.97499101 18.92402765 216.98335433 25.88446486 C216.98830667 26.61128759 216.993259 27.33811032 216.99836141 28.08695798 C217.01127735 30.51632494 217.00295194 32.94514094 216.99468613 35.37452126 C216.99963785 37.14374061 217.00589797 38.91295669 217.01334643 40.68216729 C217.03003938 45.55725011 217.02803052 50.43217476 217.02301366 55.30727701 C217.02082073 60.60591657 217.03588826 65.90451149 217.04873872 71.20313203 C217.07148397 81.71795115 217.07805816 92.23272457 217.07972588 102.74756572 C217.08246619 115.33928959 217.10246661 127.93097114 217.12276636 140.52267681 C217.16980948 170.23033099 217.18801029 199.9379757 217.20198744 229.64566019 C217.2091371 244.75649999 217.22024737 259.86733579 217.23209873 274.97817253 C217.27008642 323.44054794 217.30244201 371.90292316 217.31262011 420.36531321 C217.31310683 422.68115363 217.31360351 424.99699405 217.31410326 427.31283447 C217.31510466 431.95731991 217.3160961 436.60180536 217.31708694 441.2462908 C217.31824764 446.6839026 217.31941646 452.1215144 217.32060013 457.55912619 C217.32093739 459.11541631 217.32127164 460.67170642 217.32160289 462.22799654 C217.33225651 512.23551882 217.37751686 562.24291193 217.44741612 612.2503849 C217.49762703 648.18691556 217.54405964 684.12342188 217.557621 720.05998802 C217.55790146 720.79868932 217.55818192 721.53739062 217.55847087 722.2984768 C217.56452734 738.51293602 217.56799603 754.72739485 217.56905663 770.94185513 C217.56946516 776.74326343 217.57009215 782.5446717 217.57083639 788.34607997 C217.57102107 789.78935394 217.57119603 791.23262792 217.57136124 792.67590189 C217.57412264 815.6900845 217.60405005 838.70413236 217.6477337 861.71827062 C217.69275657 885.53312853 217.7053753 909.347744 217.68045482 933.16264631 C217.66704638 946.90115215 217.67882433 960.6391054 217.72617034 974.37753909 C217.75529171 983.54260819 217.75200962 992.70728765 217.72186165 1001.87235269 C217.7055916 1007.10226943 217.70384969 1012.33112069 217.74138781 1017.56095167 C217.77521894 1022.31371939 217.76804686 1027.06454757 217.72738659 1031.81724565 C217.72004612 1033.53074852 217.72797283 1035.24439776 217.75257602 1036.95773971 C217.92393818 1049.72493102 217.92393818 1049.72493102 214.63846806 1053.57063715 C212.3368966 1055.13777152 210.1755612 1056.23364358 207.60040283 1057.27415466 C205.96542847 1058.2362384 205.96542847 1058.2362384 204.29742432 1059.21775818 C202.77484009 1060.05198303 202.77484009 1060.05198303 201.22149658 1060.90306091 C199.48851318 1061.85620178 199.48851318 1061.85620178 197.72052002 1062.82859802 C196.49309399 1063.49815748 195.26555197 1064.16750435 194.03790283 1064.83665466 C192.74121917 1065.54677753 191.44467189 1066.2571495 190.14825439 1066.96775818 C187.53136794 1068.40099459 184.91297726 1069.83142538 182.29327393 1071.25950623 C179.03392632 1073.03641535 175.77963673 1074.82240899 172.52618408 1076.61009216 C155.71584249 1085.81613233 138.68085506 1094.58265077 121.60040283 1103.27415466 C120.61309174 1103.77682861 120.61309174 1103.77682861 119.60583496 1104.28965759 C102.27770687 1113.10592196 84.80995329 1121.53530527 67.13653564 1129.64280701 C63.54106913 1131.30152747 59.95560952 1132.98067405 56.37384033 1134.66868591 C37.58475563 1143.51666084 18.64785682 1151.99744585 -0.39959717 1160.27415466 C-2.0305835 1160.98402527 -2.0305835 1160.98402527 -3.69451904 1161.70823669 C-6.40535518 1162.88409083 -9.11971454 1164.05102449 -11.83709717 1165.21165466 C-12.96281128 1165.69771179 -12.96281128 1165.69771179 -14.11126709 1166.19358826 C-17.04516051 1167.43080192 -19.18038407 1168.27415466 -22.39959717 1168.27415466 C-22.42708786 1133.00527523 -22.45344756 1097.73639497 -22.47894287 1062.46751404 C-22.47944186 1061.77737572 -22.47994085 1061.08723741 -22.48045496 1060.37618581 C-22.53388471 986.43629603 -22.580002 912.49640597 -22.61131287 838.5565033 C-22.61201012 836.91434909 -22.61270738 835.27219488 -22.61340464 833.63004067 C-22.62801764 799.16180812 -22.64160127 764.69357522 -22.65399556 730.22534181 C-22.6602226 712.91115182 -22.66664747 695.59696191 -22.67325938 678.28277206 C-22.67425562 675.67097001 -22.67524621 673.05916797 -22.67623657 670.44736592 C-22.6915389 630.22291583 -22.7110875 589.99847331 -22.74291992 549.77403259 C-22.74360442 548.90898152 -22.74428891 548.04393045 -22.74499415 547.1526657 C-22.75605619 533.20522504 -22.76747416 519.25778466 -22.77893937 505.31034432 C-22.8119519 465.14395839 -22.84233832 424.97757826 -22.85529613 384.81118011 C-22.85556381 383.98542096 -22.85583149 383.15966181 -22.85610727 382.30887965 C-22.86193571 364.18270482 -22.86641015 346.05652992 -22.86960208 327.93035445 C-22.87091022 320.63730577 -22.87241331 313.34425713 -22.87398338 306.0512085 C-22.87415052 305.25300955 -22.87431765 304.4548106 -22.87448986 303.63242381 C-22.87997456 277.90223596 -22.9013383 252.17209128 -22.93100821 226.44192086 C-22.96081642 200.52890898 -22.9750977 174.61593901 -22.96771711 148.70290955 C-22.96670167 145.12403369 -22.96586477 141.54515782 -22.96513557 137.96628189 C-22.96498617 137.26470485 -22.96483677 136.56312782 -22.96468284 135.84029087 C-22.96277772 124.7199597 -22.97771822 113.59971705 -22.99964648 102.47941001 C-23.02085099 91.55126031 -23.02389481 80.62321095 -23.00875624 69.695048 C-23.00117674 63.84628539 -23.00165567 57.99781941 -23.02401308 52.14908808 C-23.04418238 46.83259332 -23.04150959 41.51662783 -23.02029705 36.20014159 C-23.01671377 34.28461919 -23.02158918 32.3690584 -23.03577339 30.45358516 C-23.05378505 27.85748325 -23.04103071 25.26326748 -23.02058965 22.66722441 C-23.03313404 21.92651714 -23.04567842 21.18580987 -23.05860294 20.42265693 C-22.96145118 14.65805491 -20.9332658 10.78254268 -17.39959717 6.27415466 C-11.77596151 1.06200454 -7.57343471 -0.02286337 0 0 Z " fill="#F2B943" transform="translate(1259.3995971679688,917.7258453369141)"/>
<path d="M0 0 C1.27306808 -0.00573832 1.27306808 -0.00573832 2.57185471 -0.01159257 C5.41451285 -0.02190773 8.25696845 -0.01793322 11.09963989 -0.01396179 C13.1382567 -0.0183091 15.17687188 -0.02349231 17.21548462 -0.02944946 C22.75269042 -0.0428491 28.28982801 -0.04341702 33.82704687 -0.04088616 C38.44935409 -0.03981704 43.07164747 -0.04469836 47.69395173 -0.04949158 C58.59904839 -0.06059026 69.50411062 -0.06102224 80.40921021 -0.05497742 C91.65920143 -0.04893729 102.90906759 -0.06124886 114.15903747 -0.08254749 C123.81777458 -0.1001612 133.47647188 -0.10616518 143.13522446 -0.10290974 C148.90395451 -0.10109627 154.67259537 -0.10373945 160.44131088 -0.11762428 C165.86679319 -0.13019408 171.29208053 -0.12826644 176.71755981 -0.11521339 C178.70774527 -0.11284617 180.6979444 -0.11558751 182.68811417 -0.12383652 C185.40721128 -0.13429331 188.12565293 -0.12621182 190.84472656 -0.11352539 C191.63024332 -0.12089968 192.41576008 -0.12827396 193.22508037 -0.13587171 C199.66381748 -0.0727754 204.3131044 1.32939605 209.29934692 5.63569641 C214.27178513 11.43687432 215.67463134 15.78685802 215.67354542 23.3231318 C215.67579271 24.5763271 215.67804001 25.82952241 215.6803554 27.12069333 C215.67778957 28.51671752 215.67513265 29.91274155 215.67239475 31.30876541 C215.67313413 32.79373916 215.67431243 34.27871273 215.67589125 35.76368582 C215.67897079 39.86813036 215.67577644 43.97255027 215.67161312 48.07699298 C215.6681881 52.53322535 215.67054796 56.98945515 215.67219061 61.44568801 C215.67426787 69.2635868 215.67261457 77.081478 215.6685524 84.89937592 C215.6625288 96.5243891 215.66221553 108.14939746 215.66309439 119.77441192 C215.66440978 139.32750196 215.66106123 158.88058862 215.65507698 178.43367767 C215.64916489 197.80051439 215.64531203 217.1673497 215.64422417 236.53418732 C215.64415543 237.73726136 215.64408669 238.94033541 215.64401586 240.17986625 C215.64367754 246.28938939 215.64337616 252.39891254 215.64308899 258.5084357 C215.64098721 301.80964595 215.63424606 345.11085438 215.62478638 388.4120636 C215.61560563 430.48498017 215.60852021 472.55789623 215.60427856 514.6308136 C215.60414704 515.92712803 215.60401551 517.22344245 215.60388 518.55903913 C215.60256151 531.57687179 215.60128569 544.59470444 215.60004114 557.6125371 C215.59750476 584.13260634 215.59468351 610.65267555 215.59169006 637.17274475 C215.59148413 639.00186759 215.59148413 639.00186759 215.59127403 640.8679424 C215.58206958 722.3321945 215.56622394 803.79644558 215.54934692 885.26069641 C213.96097154 885.90011872 212.37218789 886.53852691 210.7832346 887.17651176 C209.898525 887.53213499 209.01381539 887.88775821 208.10229641 888.2541579 C204.8485902 889.53698023 201.56171653 890.69101927 198.25027466 891.81587219 C197.25702824 892.15434126 197.25702824 892.15434126 196.24371624 892.49964809 C194.07440334 893.2379198 191.90374317 893.97212982 189.73294067 894.70600891 C188.17739199 895.23380759 186.62188145 895.7617187 185.06640625 896.28973389 C180.04166428 897.99366548 175.01445895 899.69025517 169.98684692 901.38569641 C168.69624674 901.82121386 168.69624674 901.82121386 167.37957382 902.26552963 C117.45461364 919.11020119 67.24404689 934.80641034 16.6086731 949.37934875 C13.73591222 950.20694964 10.86411729 951.03780094 7.9927063 951.87007141 C4.08694198 953.00159169 0.17929406 954.12622454 -3.730896 955.24235535 C-5.68408002 955.80059648 -7.6358795 956.36367494 -9.58761597 956.92695618 C-11.27745605 957.40346619 -11.27745605 957.40346619 -13.00143433 957.88960266 C-14.41936279 958.29287781 -14.41936279 958.29287781 -15.86593628 958.70429993 C-18.48138944 959.26731284 -20.78542451 959.30033058 -23.45065308 959.26069641 C-23.51919025 869.37557198 -23.58279561 779.49044439 -23.62002563 689.6053009 C-23.62058344 688.26218193 -23.62114124 686.91906296 -23.62169905 685.57594398 C-23.63338959 657.38403293 -23.64425647 629.1921216 -23.65417179 601.00020986 C-23.6591534 586.83865198 -23.66429329 572.67709415 -23.66958284 558.51553638 C-23.67037984 556.37930788 -23.67117231 554.24307938 -23.6719646 552.10685088 C-23.68420571 519.2087468 -23.69984318 486.31064863 -23.72531128 453.41255188 C-23.72585887 452.70511841 -23.72640647 451.99768494 -23.72697066 451.2688141 C-23.73582023 439.86276374 -23.74495464 428.4567136 -23.75412684 417.0506635 C-23.78053863 384.20099586 -23.80484714 351.35133277 -23.81521225 318.50165558 C-23.81542639 317.82624249 -23.81564053 317.15082941 -23.81586116 316.45494926 C-23.82031465 302.29434555 -23.82387302 288.13374176 -23.82631304 273.97313756 C-23.82746571 267.34193462 -23.82876826 260.71073171 -23.83016205 254.07952881 C-23.83043174 252.77437414 -23.83070143 251.46921947 -23.8309793 250.12451466 C-23.83571173 229.08953402 -23.85427892 208.0545871 -23.87798121 187.01962023 C-23.90149869 165.88788136 -23.9105329 144.75617602 -23.90465859 123.62442452 C-23.90160931 111.05964274 -23.90978923 98.4949834 -23.93384325 85.93022366 C-23.94880408 77.54468921 -23.9493351 69.15923526 -23.93798033 60.77369533 C-23.93192141 55.99075021 -23.93228106 51.20803717 -23.95018581 46.4251166 C-23.96634437 42.07574079 -23.96416033 37.72677871 -23.94721298 33.37740943 C-23.94435101 31.81196778 -23.94822759 30.24649595 -23.95959406 28.68109295 C-24.07179944 12.18488385 -24.07179944 12.18488385 -18.03875734 5.75621274 C-12.42799005 0.71581768 -7.30682625 -0.03495649 0 0 Z " fill="#F2B843" transform="translate(872.4506530761719,1260.7393035888672)"/>
<path d="M0 0 C1.28993914 -0.00445668 1.28993914 -0.00445668 2.60593766 -0.0090034 C5.49854726 -0.01770149 8.39111553 -0.01919959 11.28373718 -0.02069092 C13.35323678 -0.02531829 15.42273553 -0.03034284 17.49223328 -0.03573608 C23.1224439 -0.04886954 28.75264259 -0.05530684 34.38286614 -0.05974674 C37.89879216 -0.06267584 41.4147149 -0.06678033 44.93063927 -0.07125092 C55.92651871 -0.0849281 66.92239068 -0.09459378 77.91827804 -0.09845281 C90.62009875 -0.10293478 103.32181192 -0.12048825 116.02359992 -0.1494534 C125.83598944 -0.17105444 135.64834867 -0.18115624 145.46076173 -0.18249393 C151.32395349 -0.18354305 157.18704418 -0.18947375 163.05021095 -0.20731354 C168.56511606 -0.22376697 174.07984384 -0.22596295 179.59476471 -0.21717453 C181.61923637 -0.2164027 183.64371745 -0.22076597 185.66816521 -0.23063278 C188.4314955 -0.24331124 191.19419384 -0.23749776 193.95751953 -0.22705078 C194.75898621 -0.23510719 195.5604529 -0.24316359 196.38620645 -0.25146413 C202.0079877 -0.20174325 206.19069899 0.90552246 210.49736023 4.78887939 C210.96657898 5.35864502 211.43579773 5.92841064 211.91923523 6.51544189 C212.39876648 7.08005127 212.87829773 7.64466064 213.37236023 8.22637939 C216.35982363 12.63558742 216.91927176 16.48333032 216.92079163 21.75296021 C216.92376176 22.40410077 216.9267319 23.05524134 216.92979205 23.72611344 C216.93740952 25.90060892 216.93094715 28.07483248 216.92460632 30.24932861 C216.9273575 31.81191694 216.93103817 33.37450386 216.93557739 34.93708801 C216.943684 38.3004635 216.94585908 41.66377253 216.94363022 45.02715683 C216.94079117 50.3581151 216.95517408 55.68894145 216.97261047 61.01986694 C217.01957186 76.17885332 217.04355318 91.33783132 217.0500946 106.49688721 C217.05386056 114.87071582 217.07201698 123.24439554 217.10518897 131.61816037 C217.12527533 136.90364138 217.12783555 142.18873494 217.11690879 147.47423816 C217.11427754 150.78447144 217.1284231 154.09448536 217.14698982 157.40466118 C217.15225479 158.92383582 217.15091439 160.44305236 217.14195442 161.9622097 C217.06912605 175.410407 219.39181288 187.70117822 225.41923523 199.82794189 C225.76430115 200.53797363 226.10936707 201.24800537 226.46488953 201.97955322 C234.90840241 218.94516787 247.57619242 233.58597026 260.66923523 247.14044189 C261.56763123 248.07170898 261.56763123 248.07170898 262.48417664 249.02178955 C269.33259012 256.08228294 276.21880807 262.89410116 283.95829773 268.98809814 C286.39233763 270.92059956 288.74677441 272.9223278 291.09111023 274.9619751 C312.20134507 293.2342158 336.33282613 309.46160276 360.66923523 323.14044189 C361.51953308 323.62287354 362.36983093 324.10530518 363.24589539 324.60235596 C374.18842042 330.77967857 385.23243831 336.62479226 396.73173523 341.70294189 C397.60958679 342.09602539 398.48743835 342.48910889 399.39189148 342.894104 C412.84852657 348.66248487 425.10566157 350.73555089 439.57524109 350.62286377 C441.20977605 350.62505604 442.84430942 350.62906248 444.47883606 350.63471985 C447.96546025 350.64320873 451.45177476 350.63961099 454.9383831 350.626297 C460.45729323 350.60577971 465.97589829 350.61601296 471.49481201 350.6305542 C483.19881478 350.65717428 494.90271524 350.65059389 506.60673523 350.64044189 C519.2705786 350.62947386 531.93426257 350.62429031 544.59807879 350.6577363 C550.0795742 350.67107383 555.56060387 350.66520403 561.04207122 350.64437103 C564.45135653 350.63536872 567.86046319 350.6428726 571.26973343 350.65478325 C572.84508561 350.65690851 574.42046462 350.65222521 575.99577141 350.64007759 C585.81232097 350.56866484 593.04134019 350.71823108 600.48173523 357.82794189 C604.84315019 364.43237026 606.11911879 371.06583091 606.05018616 378.87556458 C606.05486613 379.706571 606.0595461 380.53757743 606.06436789 381.39376587 C606.07624573 384.15267172 606.06688919 386.91107418 606.05741882 389.66998291 C606.0614877 391.65830778 606.06683135 393.64663038 606.073349 395.63494873 C606.08698983 401.01706941 606.0817375 406.39901698 606.07221174 411.78114057 C606.06459947 417.42149642 606.07166501 423.06183776 606.07637024 428.70219421 C606.08182277 438.17179009 606.07464887 447.64131568 606.06034851 457.11090088 C606.04401829 468.05081579 606.04931529 478.990563 606.06582773 489.93047386 C606.07945126 499.33368951 606.08135814 508.73685473 606.07351172 518.14007705 C606.0688406 523.75171815 606.06819507 529.36328046 606.07812119 534.97491646 C606.08680131 540.25026662 606.08074969 545.52540094 606.06343842 550.80072784 C606.05947939 552.73405283 606.0605976 554.66739605 606.06722641 556.60071373 C606.07545497 559.24482012 606.06510471 561.88823991 606.05018616 564.53230286 C606.0602244 565.6729339 606.0602244 565.6729339 606.07046545 566.83660799 C605.99997971 573.30119649 604.59012062 578.72561454 600.48173523 583.89044189 C591.91807189 590.74137256 584.19206968 590.70401006 573.66899109 590.62286377 C572.04684623 590.62505216 570.42470296 590.62905274 568.80256653 590.63471985 C565.3196545 590.64326114 561.83705122 590.63953418 558.35415459 590.626297 C552.83388156 590.60587852 547.31391636 590.61597478 541.79364014 590.6305542 C529.07072509 590.65953924 516.34790145 590.64889132 503.62496948 590.63785553 C491.97781754 590.62815529 480.33082806 590.62704845 468.68370348 590.6577363 C463.21001196 590.67102331 457.73678824 590.6652728 452.2631253 590.64437103 C448.83820168 590.6353072 445.4134534 590.64292908 441.98854446 590.65478325 C440.41613846 590.65689219 438.84370487 590.65232291 437.27134514 590.64007759 C423.13243198 590.53629444 410.7981963 593.30721574 397.79423523 599.07794189 C396.92331238 599.4592627 396.05238953 599.8405835 395.15507507 600.23345947 C369.62367035 611.62955763 345.3562377 625.81846466 322.66923523 642.14044189 C321.92222351 642.67636963 321.17521179 643.21229736 320.40556335 643.76446533 C309.82723301 651.38312314 299.51095207 659.26772972 289.49980164 667.61846924 C287.78892736 669.04092726 286.06474891 670.44535546 284.33720398 671.84747314 C268.27992892 685.05425959 252.75219429 700.18634228 240.66923523 717.14044189 C239.89966492 718.17684814 239.1300946 719.21325439 238.33720398 720.28106689 C227.05518808 735.88753523 217.57410712 753.22962915 217.53120422 772.93377686 C217.52838294 773.59212194 217.52556166 774.25046702 217.52265489 774.92876196 C217.51436316 777.12107889 217.51297536 779.31334498 217.51152039 781.50567627 C217.50684832 783.08301433 217.50170411 784.66035105 217.49612427 786.23768616 C217.48487159 789.62778089 217.47642396 793.01786697 217.47000504 796.40797424 C217.45929996 801.77012379 217.43904996 807.13221083 217.41688538 812.49432373 C217.3550404 827.7397781 217.30092024 842.98522788 217.26786804 858.23077393 C217.24952288 866.65578611 217.22059293 875.08069264 217.17986333 883.50562716 C217.1588008 887.96141484 217.14333703 892.41706946 217.14105606 896.87290955 C217.13890868 901.0623683 217.12303032 905.25154949 217.09666634 909.44092369 C217.08947675 910.97677263 217.08737073 912.51265522 217.09076881 914.04851723 C217.09467218 916.14837455 217.08018287 918.24734909 217.06123352 920.34710693 C217.05792337 921.52105263 217.05461323 922.69499832 217.05120277 923.90451813 C216.38318975 929.5637404 213.9741006 933.34109462 209.66923523 936.95294189 C208.98861023 937.53688721 208.30798523 938.12083252 207.60673523 938.72247314 C203.5127825 941.71865226 199.19804234 941.2913522 194.35192871 941.29434204 C193.49338041 941.29872429 192.63483212 941.30310655 191.75026721 941.3076216 C188.86233313 941.32101713 185.97442957 941.32719017 183.08647156 941.33331299 C181.02021649 941.34121337 178.9539628 941.34948228 176.88771057 941.35809326 C170.09224263 941.38432102 163.2967685 941.39962176 156.50126648 941.41387939 C154.16274702 941.41923878 151.82422761 941.42461629 149.48570824 941.43001175 C139.75860662 941.45164166 130.03150667 941.47037863 120.30438709 941.48163414 C106.36031963 941.49787482 92.41653076 941.5310545 78.47256833 941.58803499 C68.67034074 941.62672616 58.86818768 941.64626588 49.06588572 941.6515547 C43.21037045 941.65520928 37.35515228 941.6672423 31.49971962 941.69965744 C25.98964926 941.72972321 20.48005599 941.73605498 14.96992111 941.72427368 C12.94950139 941.72405282 10.92905963 941.73236789 8.9087162 941.74992752 C6.14572461 941.77263123 3.38446127 941.7643187 0.62145996 941.7484436 C-0.17418104 941.76232569 -0.96982204 941.77620778 -1.78957337 941.79051054 C-7.70196709 941.70706696 -11.76756144 939.90378892 -16.33076477 936.14044189 C-21.7563551 929.97919447 -22.48017591 925.01256466 -22.47120667 916.8927002 C-22.47417779 916.05371524 -22.47714891 915.21473028 -22.48021007 914.35032153 C-22.48889254 911.53458335 -22.49040494 908.71888772 -22.49189758 905.90313721 C-22.49652608 903.88599558 -22.50155078 901.86885482 -22.50694275 899.85171509 C-22.52006583 894.36811894 -22.52651155 888.88453503 -22.53095341 883.40092564 C-22.53388433 879.97493131 -22.53798918 876.54894033 -22.54245758 873.12294769 C-22.55613237 862.40364639 -22.56579908 851.68435273 -22.56965947 840.96504331 C-22.57414008 828.59152434 -22.59168827 816.21811585 -22.62066007 803.84463048 C-22.64227725 794.28017044 -22.65236378 784.71574148 -22.65370059 775.15125728 C-22.6547486 769.43892213 -22.66065571 763.72669083 -22.6785202 758.01438141 C-22.6950014 752.63980812 -22.69715607 747.26541674 -22.6883812 741.89082718 C-22.68761085 739.92040901 -22.69195323 737.94998107 -22.70183945 735.97958755 C-22.7145647 733.28488182 -22.70867899 730.59081982 -22.69825745 727.89611816 C-22.70631385 727.12061403 -22.71437026 726.34510989 -22.72267079 725.54610562 C-22.6668128 719.34952679 -21.52304267 713.71725241 -17.39326477 708.86309814 C-16.37232727 708.0413208 -16.37232727 708.0413208 -15.33076477 707.20294189 C-14.30982727 706.35409424 -14.30982727 706.35409424 -13.26826477 705.48809814 C-9.76454494 703.05103496 -6.76729601 703.01110113 -2.62432861 702.99568176 C-1.43457932 702.98878326 -0.24483002 702.98188477 0.98097229 702.97477722 C2.288414 702.97216385 3.59585571 702.96955048 4.94291687 702.96685791 C6.33285733 702.96055143 7.72279577 702.95378553 9.11273193 702.94659424 C12.10997154 702.93191762 15.10720331 702.92019462 18.10446358 702.91064644 C22.86058284 702.89516071 27.61663619 702.8712041 32.37271118 702.8457489 C45.89932566 702.77465898 59.42597972 702.71510834 72.9526825 702.66363525 C80.42080129 702.63514144 87.88885625 702.59964836 95.35690778 702.5569815 C99.3011329 702.53479285 103.24529983 702.51619578 107.1895771 702.50653267 C161.946156 702.3669955 207.02344793 686.53373252 252.66923523 656.14044189 C253.73827087 655.43057129 253.73827087 655.43057129 254.8289032 654.70635986 C268.02261859 645.89939513 280.48344589 636.29526634 292.66923523 626.14044189 C293.6669696 625.32962158 294.66470398 624.51880127 295.69267273 623.68341064 C303.5249974 617.22998298 310.79143543 610.23169595 317.98173523 603.07794189 C318.90059509 602.1682666 319.81945496 601.25859131 320.76615906 600.3213501 C326.82395227 594.23620793 332.36363865 587.88912915 337.66923523 581.14044189 C338.18768005 580.48664551 338.70612488 579.83284912 339.24028015 579.15924072 C351.44510865 563.56041584 364.70995236 543.82497004 364.81640625 523.26753235 C364.82356155 522.31326355 364.83071686 521.35899475 364.83808899 520.37580872 C364.84077789 519.34044479 364.8434668 518.30508087 364.84623718 517.23834229 C364.85280838 516.13843964 364.85937958 515.03853699 364.8661499 513.90530396 C364.88585334 510.2662346 364.89754147 506.62720655 364.90751648 502.98809814 C364.91159201 501.74141294 364.91566753 500.49472775 364.91986656 499.21026421 C364.93857067 493.28676982 364.95313587 487.36328844 364.96147853 481.43977171 C364.97122162 474.63666325 364.99746843 467.8338827 365.03797942 461.03088957 C365.07199487 455.11225408 365.08364144 449.19369708 365.08768272 443.27496147 C365.09253054 440.77174093 365.10409245 438.26852343 365.12272072 435.76536751 C365.31973697 417.08677846 365.31973697 417.08677846 360.66923523 399.14044189 C360.30143448 398.11350723 359.93363373 397.08657257 359.5546875 396.02851868 C354.62253935 382.54158374 345.57008616 370.25916162 336.66923523 359.14044189 C335.84681335 358.11305908 335.02439148 357.08567627 334.17704773 356.02716064 C327.90693 348.39075614 321.06727918 341.33458623 314.10673523 334.32794189 C313.24467468 333.45661621 312.38261414 332.58529053 311.49443054 331.68756104 C306.27757986 326.49589583 300.8692487 321.7153807 295.1269989 317.11236572 C293.1757523 315.54683291 291.26606968 313.95925155 289.38407898 312.31231689 C238.05012129 267.5485282 176.5650215 238.78113537 108.26293755 238.89661217 C103.49162203 238.90432136 98.72045242 238.89345999 93.94915771 238.87940979 C80.39596325 238.84193802 66.84284074 238.82351644 53.28959656 238.83502197 C45.7730729 238.84124492 38.25679033 238.8296396 30.74032599 238.79857665 C26.00305806 238.77999546 21.26647736 238.78316608 16.52922142 238.80274427 C13.58310708 238.80964564 10.63736273 238.79563395 7.69131851 238.77579498 C5.68675194 238.76838095 3.68214103 238.78564771 1.67764282 238.80378723 C-5.62588788 238.7287401 -10.7341047 238.05486462 -16.33076477 233.14044189 C-21.8992553 227.42541214 -22.62892356 221.37004249 -22.59146118 213.65219116 C-22.59528673 212.81149735 -22.59911228 211.97080354 -22.60305375 211.10463417 C-22.61335069 208.29505416 -22.60939788 205.48567978 -22.60542297 202.67608643 C-22.60977129 200.6586488 -22.61495484 198.64121282 -22.62091064 196.6237793 C-22.63429935 191.14854683 -22.63487942 185.6733834 -22.63234735 180.19813776 C-22.6312775 175.62558114 -22.63616139 171.05303848 -22.64095277 166.48048484 C-22.65204762 155.6918336 -22.65248554 144.90321718 -22.6464386 134.11456299 C-22.64039863 122.98897041 -22.65271052 111.86350428 -22.67400867 100.73793328 C-22.69162873 91.18191952 -22.69762536 81.62594601 -22.69437093 72.06991661 C-22.6925585 66.36432639 -22.69519027 60.65882638 -22.70908546 54.95325089 C-22.72166562 49.58684739 -22.7197178 44.22064091 -22.70667458 38.85424042 C-22.70430963 36.88704995 -22.70704055 34.91984561 -22.7152977 32.95267105 C-22.72577377 30.26243954 -22.71765759 27.57286802 -22.70498657 24.88265991 C-22.71236086 24.10852001 -22.71973514 23.33438011 -22.72733289 22.53678143 C-22.66619669 16.34550985 -21.51909246 10.71260933 -17.39326477 5.86309814 C-16.37232727 5.0413208 -16.37232727 5.0413208 -15.33076477 4.20294189 C-14.65013977 3.63704346 -13.96951477 3.07114502 -13.26826477 2.48809814 C-9.11959913 -0.39756647 -4.84121788 -0.0051906 0 0 Z " fill="#F1B843" transform="translate(870.3307647705078,187.85955810546875)"/>
<path d="M0 0 C-1.28519565 2.86697492 -2.57129254 4.97607712 -5 7 C-5.66 7 -6.32 7 -7 7 C-3.86206897 0 -3.86206897 0 0 0 Z " fill="#8C6B27" transform="translate(859,1264)"/>
<path d="M0 0 C-1.28519565 2.86697492 -2.57129254 4.97607712 -5 7 C-5.66 7 -6.32 7 -7 7 C-3.86206897 0 -3.86206897 0 0 0 Z " fill="#947226" transform="translate(858,191)"/>
</svg>
